<svg width="720" height="363" viewBox="0 0 720 363" fill="none" xmlns="http://www.w3.org/2000/svg">
<g clip-path="url(#clip0_449_5481)">
<path d="M538.927 6.0673e-06C510.81 6.0673e-06 483.704 7.17225 459.291 19.9135C458.534 20.3354 457.692 20.7573 456.934 21.1792C455.167 22.1074 453.399 23.1199 451.715 24.1325C450.957 24.5544 450.2 25.0607 449.442 25.4826C447.338 26.7483 445.149 28.0983 443.129 29.4484C442.876 29.6172 442.708 29.7015 442.455 29.8703C392.368 63.0314 357.769 119.987 357.853 181.584C357.685 278.03 442.708 363.253 538.927 363.084C635.145 363.253 720.168 278.03 720 181.584C720.252 85.0544 635.23 -0.168753 538.927 6.0673e-06ZM695.167 95.4331C711.582 133.91 700.386 180.909 641.291 180.909H641.207V181.669H641.291C698.702 181.669 710.993 226.137 696.598 263.939L695.84 265.711L696.177 265.542C679.256 298.197 652.571 323.426 621.087 339.374C583.458 353.634 539.432 341.315 539.348 283.937V283.852H538.59C538.59 341.399 494.395 353.803 456.682 339.458C441.192 331.527 426.292 321.232 412.571 308.153C400.28 295.918 390.263 281.827 382.434 266.723C366.44 228.331 377.804 181.838 436.563 181.838H436.647V181.078H436.563C379.151 181.078 366.861 136.61 381.256 98.8082L381.929 97.205C389.758 81.7636 400.028 67.4191 412.571 54.8466C426.629 41.5146 441.866 30.9672 457.692 23.0356C495.152 9.36611 538.422 21.9386 538.506 78.8947V78.9791H539.263C539.263 22.1074 582.364 9.45049 619.74 22.9512C651.14 38.5614 677.909 63.3689 695.167 95.6018V95.4331Z" fill="#231F20"/>
<path d="M181.073 360.469C174.928 360.469 167.099 360.215 158.176 359.119C105.984 351.271 58.169 321.738 30.3051 277.439C7.07118 237.697 14.7316 182.597 79.1301 182.513C111.961 182.259 145.381 182.259 172.824 182.175V180.909C145.212 180.825 111.119 180.741 77.7832 180.487C21.5503 179.728 9.51243 136.273 23.8232 98.8082L23.9916 98.4707C37.1238 72.3975 56.3171 49.5307 80.8979 33.3298C80.8979 33.3298 80.9821 33.3298 81.0663 33.2455C83.5917 31.5579 86.2855 30.1234 88.8951 28.6046C128.292 7.93166 180.568 16.9602 180.652 79.4853V79.5697H181.41C181.41 21.9386 225.773 9.61924 263.486 24.0481L264.076 22.698C264.076 22.698 264.076 22.698 264.16 22.698V22.5293C263.066 21.8542 261.887 21.4324 260.708 20.7573C214.577 -5.56904 154.809 -6.49721 107.247 17.0446C33.1673 51.6402 -15.4893 138.213 4.46157 219.471C9.93334 243.097 20.456 265.12 34.43 284.527C34.2616 284.443 34.2616 284.527 35.1035 285.624C55.3069 311.107 56.4854 360.469 10.4384 360.469V361.312H181.073V360.469ZM103.795 343.255C101.017 341.905 98.3234 340.471 95.5454 338.952C98.2392 340.471 101.017 341.905 103.795 343.255ZM93.2725 337.771C89.6527 335.745 86.0329 333.383 82.4973 330.936C86.0329 333.298 89.6527 335.577 93.2725 337.771ZM78.5408 328.236C76.5205 326.801 74.5843 325.367 72.564 323.764C74.5002 325.282 76.5205 326.801 78.5408 328.236Z" fill="#231F20"/>
<path d="M539.937 126.653C539.937 117.119 539.853 108.09 539.769 100.074H538.59C538.59 108.259 538.422 117.372 538.422 127.075C535.812 164.455 520.828 178.715 482.273 180.656C473.602 180.656 465.353 180.741 458.029 180.825V182.006C465.689 182.006 474.192 182.091 483.199 182.175C521.165 184.285 535.896 198.545 538.422 235.587C538.422 245.375 538.506 254.488 538.59 262.757H539.769C539.769 254.573 539.937 245.46 539.937 235.672C542.378 198.291 557.026 184.2 595.075 182.175C604.083 182.175 612.669 182.091 620.33 182.006V180.825C613.259 180.825 605.346 180.741 597.096 180.656C559.299 179.053 542.631 166.143 539.937 126.653Z" fill="#231F20"/>
<path d="M442.371 339.458C404.658 353.887 360.379 341.568 360.295 284.105V284.021H359.537C359.537 341.399 315.679 353.803 278.05 339.711C246.229 323.595 220.386 298.197 203.634 266.976C187.471 228.584 198.835 181.922 257.678 181.922H257.762V181.162H257.678C200.435 181.162 188.06 136.948 202.287 99.1458C202.876 97.7957 203.381 96.4456 204.055 95.0956C219.544 64.4658 244.125 41.3459 272.999 26.0732C311.638 8.77546 359.621 19.6604 359.705 79.5697V79.6541H360.463C360.463 22.023 404.826 9.70363 442.539 24.1325L443.213 22.5293C440.182 20.8417 437.236 19.4916 434.29 18.0572C381.677 -9.788 313.911 -4.13458 264.917 28.9421C233.771 48.4338 209.947 76.8696 195.384 109.103C194.963 110.031 194.542 111.043 194.121 111.971C192.606 115.431 191.259 118.975 189.912 122.603C189.828 122.856 189.744 123.194 189.576 123.447C172.908 170.531 175.349 223.858 203.044 269.255C219.291 298.112 243.283 321.57 271.147 337.855C271.82 338.277 272.494 338.614 273.083 338.952C274.346 339.627 275.608 340.386 276.871 341.061C284.279 345.112 291.519 348.318 298.506 350.934C298.927 351.103 299.432 351.271 299.853 351.44C300.947 351.862 301.957 352.199 303.051 352.537C342.532 366.46 386.306 366.797 425.872 348.993C431.512 346.715 437.152 344.183 443.044 340.893L442.371 339.289V339.458Z" fill="#231F20"/>
</g>
<defs>
<clipPath id="clip0_449_5481">
<rect width="720" height="363" fill="white"/>
</clipPath>
</defs>
</svg>
