<svg width="656" height="335" viewBox="0 0 656 335" fill="none" xmlns="http://www.w3.org/2000/svg">
<path d="M99.3342 178.299C99.3342 178.299 99.4651 178.22 99.5175 178.141C116.64 153.484 186.309 44.5065 208.51 12.5913C212.176 7.35075 208.353 0.171152 201.965 0.24976C179.449 0.564195 136.616 1.08825 105.042 1.08825C73.4671 1.08825 30.8176 0.537993 9.00856 0.24976C2.77739 0.144949 -1.04508 6.95771 2.22759 12.2507C17.596 36.8814 52.6791 93.0867 74.2787 127.648C89.3853 151.834 89.3853 182.491 74.2787 206.676C52.6529 241.29 17.4128 297.731 2.12286 322.257C-1.14981 327.498 2.62031 334.258 8.79911 334.258H95.4594C98.2608 334.258 99.0462 331.769 95.6688 331.769L59.9837 328.284C38.2531 325.769 24.377 301.347 36.1063 282.115L99.3866 178.325L99.3342 178.299ZM37.1012 53.9919C24.4294 33.1606 39.248 6.45985 63.5967 6.19782C77.4466 6.04061 92.0296 5.93579 104.806 5.93579C115.671 5.93579 132.715 6.0144 144.837 6.11921C170.836 6.35504 184.24 33.0558 169.369 56.8219L129.574 119.08C117.059 138.68 88.3381 138.339 76.2685 118.477C58.0724 88.5274 37.075 53.9657 37.075 53.9657L37.1012 53.9919Z" fill="black"/>
<path d="M551.224 8.03205C564.577 8.03205 576.856 8.16307 591.439 8.32028C615.604 8.58231 630.423 34.9162 618.144 55.7476L604.503 81.4002C601.885 85.6975 606.572 89.1825 609.399 85.1734L654.615 12.2507C658.07 7.03634 654.327 0.0401611 648.069 0.0401611H454.537C448.279 0.0401611 444.535 7.01014 447.991 12.2507L492.683 85.6975C495.249 89.3397 500.485 86.8766 498.102 82.9724L484.462 55.7476C472.183 34.9162 487.002 8.58231 511.167 8.32028C525.75 8.16307 538.029 8.03205 551.381 8.03205" fill="black"/>
<path d="M551.224 326.266C564.577 326.266 576.856 326.135 591.439 325.978C615.604 325.716 630.423 299.382 618.144 278.551L604.503 252.898C601.885 248.601 606.572 245.116 609.399 249.125L654.615 322.048C658.07 327.262 654.327 334.258 648.069 334.258H454.537C448.279 334.258 444.535 327.288 447.991 322.048L492.683 248.601C495.249 244.959 500.485 247.422 498.102 251.326L484.462 278.551C472.183 299.382 487.002 325.716 511.167 325.978C525.75 326.135 538.029 326.266 551.381 326.266" fill="black"/>
<path d="M325.489 8.03205C338.841 8.03205 351.12 8.16307 365.703 8.32028C389.869 8.58231 404.687 34.9162 392.408 55.7476L385.994 69.1897C383.376 73.4869 388.062 76.9719 390.89 72.9629L428.879 12.2507C432.335 7.03634 428.591 0.0401611 422.333 0.0401611H228.801C222.543 0.0401611 218.8 7.01014 222.255 12.2507L292.369 123.168C294.935 126.81 299.333 123.456 296.951 119.552L258.726 55.7476C246.447 34.9162 261.266 8.58231 285.431 8.32028C300.014 8.16307 312.293 8.03205 325.646 8.03205" fill="black"/>
<path d="M325.489 326.266C338.841 326.266 351.12 326.135 365.703 325.978C389.869 325.716 404.687 299.382 392.408 278.551L385.627 266.236C383.009 261.938 387.695 258.453 390.523 262.462L428.879 322.048C432.335 327.262 428.591 334.258 422.333 334.258H228.801C222.543 334.258 218.8 327.288 222.255 322.048L291.531 213.62C294.097 209.978 299.333 212.441 296.951 216.345L258.726 278.551C246.447 299.382 261.266 325.716 285.431 325.978C300.014 326.135 312.293 326.266 325.646 326.266" fill="black"/>
<path d="M598.796 230.757L571.908 183.487C565.912 172.953 565.965 160.035 572.039 149.554L598.77 103.411C600.288 100.607 596.125 98.1963 594.424 100.79L566.279 145.597C558.922 155.869 543.632 155.817 536.38 145.44L508.418 100.24C506.795 97.8032 502.606 100.24 504.072 102.86L530.489 149.344C536.746 160.376 536.694 173.897 530.358 184.876L504.098 230.233C502.579 233.036 506.742 235.447 508.444 232.853L536.589 188.046C543.946 177.775 559.236 177.827 566.488 188.203L594.45 233.403C596.073 235.84 600.262 233.403 598.796 230.783V230.757Z" fill="black"/>
<path d="M547.14 167.136L549.915 76.6051C550.046 73.4869 554.68 73.4345 554.837 76.6051L557.613 167.136C557.613 174.237 547.14 174.29 547.14 167.136Z" fill="black"/>
<path d="M557.613 167.136L554.837 257.667C554.785 259.03 553.659 260.104 552.298 260.052C550.989 259.999 549.968 258.951 549.915 257.667L547.14 167.136C547.14 160.035 557.613 159.983 557.613 167.136Z" fill="black"/>
</svg>

