<svg width="656" height="335" viewBox="0 0 656 335" fill="none" xmlns="http://www.w3.org/2000/svg">
<path d="M98.5537 178.253C98.5537 178.253 98.6846 178.174 98.737 178.096C115.86 153.439 185.528 44.4608 207.73 12.5457C211.395 7.3051 207.573 0.125497 201.185 0.204106C178.669 0.518541 135.836 1.0426 104.261 1.0426C72.6865 1.0426 30.0371 0.492338 8.22804 0.204106C1.99688 0.0992944 -1.8256 6.91205 1.44707 12.205C16.8155 36.8358 51.8985 93.041 73.4982 127.603C88.6048 151.788 88.6048 182.445 73.4982 206.631C51.8724 241.245 16.6323 297.686 1.34234 322.212C-1.93033 327.452 1.83979 334.213 8.01859 334.213H94.6789C97.4803 334.213 98.2657 331.723 94.8883 331.723L59.2031 328.238C37.4726 325.723 23.5965 301.302 35.3257 282.069L98.6061 178.279L98.5537 178.253ZM36.3206 53.9463C23.6489 33.115 38.4675 6.4142 62.8162 6.15217C76.6661 5.99495 91.2491 5.89014 104.026 5.89014C114.891 5.89014 131.935 5.96875 144.057 6.07356C170.055 6.30939 183.46 33.0102 168.589 56.7762L128.793 119.034C116.278 138.634 87.5575 138.293 75.4879 118.432C57.2919 88.4817 36.2945 53.9201 36.2945 53.9201L36.3206 53.9463Z" fill="white"/>
<path d="M550.444 7.9864C563.796 7.9864 576.075 8.11741 590.658 8.27463C614.824 8.53666 629.642 34.8706 617.363 55.7019L603.723 81.3546C601.105 85.6518 605.791 89.1368 608.619 85.1278L653.834 12.2051C657.29 6.99069 653.546 -0.00549316 647.289 -0.00549316H453.756C447.499 -0.00549316 443.755 6.96448 447.211 12.2051L491.902 85.6518C494.468 89.2941 499.704 86.831 497.322 82.9267L483.681 55.7019C471.402 34.8706 486.221 8.53666 510.386 8.27463C524.969 8.11741 537.248 7.9864 550.601 7.9864" fill="white"/>
<path d="M550.444 326.221C563.796 326.221 576.075 326.09 590.658 325.933C614.824 325.671 629.642 299.337 617.363 278.505L603.723 252.853C601.105 248.555 605.791 245.07 608.619 249.079L653.834 322.002C657.29 327.217 653.546 334.213 647.289 334.213H453.756C447.499 334.213 443.755 327.243 447.211 322.002L491.902 248.555C494.468 244.913 499.704 247.376 497.322 251.28L483.681 278.505C471.402 299.337 486.221 325.671 510.386 325.933C524.969 326.09 537.248 326.221 550.601 326.221" fill="white"/>
<path d="M324.708 7.9864C338.061 7.9864 350.34 8.11741 364.923 8.27463C389.088 8.53666 403.907 34.8706 391.628 55.7019L385.213 69.144C382.595 73.4413 387.282 76.9263 390.109 72.9172L428.098 12.2051C431.554 6.99069 427.81 -0.00549316 421.553 -0.00549316H228.021C221.763 -0.00549316 218.019 6.96448 221.475 12.2051L291.589 123.122C294.155 126.764 298.553 123.41 296.171 119.506L257.946 55.7019C245.667 34.8706 260.485 8.53666 284.651 8.27463C299.234 8.11741 311.513 7.9864 324.865 7.9864" fill="white"/>
<path d="M324.708 326.221C338.061 326.221 350.34 326.09 364.923 325.933C389.088 325.671 403.907 299.337 391.628 278.505L384.847 266.19C382.229 261.893 386.915 258.408 389.743 262.417L428.098 322.002C431.554 327.217 427.81 334.213 421.553 334.213H228.021C221.763 334.213 218.019 327.243 221.475 322.002L290.751 213.574C293.317 209.932 298.553 212.395 296.171 216.3L257.946 278.505C245.667 299.337 260.485 325.671 284.651 325.933C299.234 326.09 311.513 326.221 324.865 326.221" fill="white"/>
<path d="M598.015 230.711L571.127 183.441C565.132 172.908 565.184 159.99 571.258 149.508L597.989 103.365C599.508 100.561 595.345 98.1506 593.643 100.745L565.498 145.552C558.141 155.823 542.851 155.771 535.599 145.394L507.637 100.194C506.014 97.7576 501.825 100.194 503.291 102.815L529.708 149.299C535.966 160.33 535.913 173.851 529.577 184.83L503.317 230.187C501.799 232.991 505.962 235.402 507.664 232.807L535.808 188C543.165 177.729 558.455 177.781 565.708 188.158L593.669 233.358C595.293 235.795 599.482 233.358 598.015 230.737V230.711Z" fill="white"/>
<path d="M546.36 167.09L549.135 76.5594C549.266 73.4413 553.9 73.3889 554.057 76.5594L556.832 167.09C556.832 174.191 546.36 174.244 546.36 167.09Z" fill="white"/>
<path d="M556.832 167.09L554.057 257.622C554.005 258.984 552.879 260.058 551.517 260.006C550.208 259.954 549.187 258.906 549.135 257.622L546.36 167.09C546.36 159.989 556.832 159.937 556.832 167.09Z" fill="white"/>
</svg>

