<svg width="656" height="336" viewBox="0 0 656 336" fill="none" xmlns="http://www.w3.org/2000/svg">
<g clip-path="url(#clip0_40_6404)">
<path d="M99.4106 179.045C99.4106 179.045 99.5415 178.966 99.5939 178.887C116.717 154.23 186.385 45.2524 208.587 13.3373C212.252 8.09671 208.43 0.917108 202.042 0.995717C179.526 1.31015 136.693 1.83421 105.118 1.83421C73.5435 1.83421 30.894 1.28395 9.08497 0.995717C2.85381 0.890905 -0.968667 7.70366 2.304 12.9967C17.6725 37.6274 52.7555 93.8327 74.3551 128.394C89.4617 152.58 89.4617 183.237 74.3551 207.422C52.7293 242.036 17.4892 298.477 2.19928 323.003C-1.07339 328.244 2.69672 335.004 8.87552 335.004H95.5358C98.3372 335.004 99.1226 332.515 95.7452 332.515L60.0601 329.03C38.3295 326.515 24.4534 302.093 36.1827 282.86L99.463 179.071L99.4106 179.045ZM37.1776 54.7379C24.5058 33.9066 39.3244 7.20581 63.6731 6.94378C77.523 6.78656 92.106 6.68175 104.883 6.68175C115.748 6.68175 132.792 6.76036 144.914 6.86517C170.912 7.101 184.317 33.8018 169.446 57.5678L129.65 119.826C117.135 139.426 88.4145 139.085 76.3449 119.223C58.1488 89.2733 37.1514 54.7117 37.1514 54.7117L37.1776 54.7379Z" fill="black" stroke="black" stroke-width="0.75" stroke-miterlimit="10"/>
<path d="M551.301 8.77798C564.653 8.77798 576.932 8.90899 591.515 9.06621C615.681 9.32824 630.499 35.6622 618.22 56.4935L604.58 82.1461C601.962 86.4434 606.648 89.9284 609.476 85.9194L654.691 12.9966C658.147 7.78227 654.403 0.786087 648.146 0.786087H454.613C448.356 0.786087 444.612 7.75606 448.068 12.9966L492.759 86.4434C495.325 90.0856 500.561 87.6226 498.179 83.7183L484.538 56.4935C472.259 35.6622 487.078 9.32824 511.243 9.06621C525.826 8.90899 538.105 8.77798 551.458 8.77798" fill="black"/>
<path d="M551.301 327.012C564.653 327.012 576.932 326.881 591.515 326.724C615.681 326.462 630.499 300.128 618.22 279.297L604.58 253.644C601.962 249.347 606.648 245.862 609.476 249.871L654.691 322.794C658.147 328.008 654.403 335.004 648.146 335.004H454.613C448.356 335.004 444.612 328.034 448.068 322.794L492.759 249.347C495.325 245.705 500.561 248.168 498.179 252.072L484.538 279.297C472.259 300.128 487.078 326.462 511.243 326.724C525.826 326.881 538.105 327.012 551.458 327.012" fill="black"/>
<path d="M325.565 8.77798C338.918 8.77798 351.197 8.90899 365.78 9.06621C389.945 9.32824 404.764 35.6622 392.485 56.4935L386.07 69.9356C383.452 74.2329 388.139 77.7178 390.966 73.7088L428.955 12.9966C432.411 7.78227 428.667 0.786087 422.41 0.786087H228.877C222.62 0.786087 218.876 7.75606 222.332 12.9966L292.446 123.914C295.012 127.556 299.41 124.202 297.028 120.298L258.803 56.4935C246.524 35.6622 261.342 9.32824 285.508 9.06621C300.091 8.90899 312.37 8.77798 325.722 8.77798" fill="black"/>
<path d="M325.565 327.012C338.918 327.012 351.197 326.881 365.78 326.724C389.945 326.462 404.764 300.128 392.485 279.297L385.704 266.982C383.086 262.684 387.772 259.199 390.6 263.208L428.955 322.794C432.411 328.008 428.667 335.004 422.41 335.004H228.877C222.62 335.004 218.876 328.034 222.332 322.794L291.608 214.366C294.174 210.724 299.41 213.187 297.028 217.091L258.803 279.297C246.524 300.128 261.342 326.462 285.508 326.724C300.091 326.881 312.37 327.012 325.722 327.012" fill="black"/>
<path d="M598.872 231.503L571.984 184.233C565.989 173.699 566.041 160.781 572.115 150.3L598.846 104.157C600.365 101.353 596.202 98.9422 594.5 101.536L566.355 146.343C558.998 156.615 543.708 156.562 536.456 146.186L508.494 100.986C506.871 98.5492 502.682 100.986 504.148 103.606L530.565 150.09C536.823 161.122 536.77 174.642 530.434 185.621L504.174 230.979C502.656 233.782 506.819 236.193 508.52 233.599L536.665 188.792C544.022 178.52 559.312 178.573 566.565 188.949L594.526 234.149C596.149 236.586 600.339 234.149 598.872 231.529V231.503Z" fill="black"/>
<path d="M547.217 167.882L549.992 77.351C550.123 74.2329 554.757 74.1805 554.914 77.351L557.689 167.882C557.689 174.983 547.217 175.035 547.217 167.882Z" fill="black"/>
<path d="M557.689 167.882L554.914 258.413C554.862 259.776 553.736 260.85 552.374 260.798C551.065 260.745 550.044 259.697 549.992 258.413L547.217 167.882C547.217 160.781 557.689 160.729 557.689 167.882Z" fill="black"/>
</g>
<defs>
<clipPath id="clip0_40_6404">
<rect width="656" height="336" fill="white"/>
</clipPath>
</defs>
</svg>

