<svg width="21" height="21" viewBox="0 0 21 21" fill="none" xmlns="http://www.w3.org/2000/svg">
<path d="M9.64555 11.1845C9.64555 10.4985 9.98155 10.0925 10.8216 9.49052L11.2976 9.16852C11.5776 8.97252 11.8016 8.76252 11.9556 8.53852C12.1236 8.30052 12.2076 8.07652 12.2076 7.85252C12.2076 7.22252 11.5636 6.59252 10.9616 6.59252C10.4996 6.59252 10.1356 6.87252 9.67355 7.33452C9.35155 7.62852 9.22555 7.75452 9.07155 7.75452C8.90355 7.75452 8.60955 7.55852 8.60955 7.29252C8.60955 7.08252 8.80555 6.83052 9.21155 6.56452C9.70155 6.24252 10.1776 6.07452 10.6396 6.07452C11.7736 6.07452 12.7676 7.04052 12.7676 8.21652C12.7676 8.90252 12.4176 9.32252 11.8016 9.77052L11.5636 9.95252C10.7936 10.4985 10.3596 10.8905 10.3596 11.4645C10.3596 11.9825 10.7096 12.5845 11.2136 13.0325L11.0176 13.2285C10.2756 12.7945 9.64555 12.0385 9.64555 11.1845ZM9.99555 15.1885C9.99555 14.7825 10.3176 14.4885 10.7096 14.4885C11.1016 14.4885 11.4096 14.7545 11.4096 15.1885C11.4096 15.5945 11.0876 15.9305 10.7096 15.9305C10.3176 15.9305 9.99555 15.5945 9.99555 15.1885Z" fill="black"/>
<circle cx="10.7511" cy="10.299" r="9.18766" stroke="black"/>
</svg>

