<svg width="1320" height="676" viewBox="0 0 1320 676" fill="none" xmlns="http://www.w3.org/2000/svg">
<g clip-path="url(#clip0_254_1461)">
<path d="M988.033 -2.26537e-05C936.486 -2.26537e-05 886.791 13.3473 842.035 37.0583C840.646 37.8434 839.102 38.6286 837.713 39.4137C834.473 41.141 831.232 43.0253 828.145 44.9096C826.756 45.6948 825.367 46.6369 823.978 47.4221C820.12 49.7775 816.107 52.2899 812.403 54.8023C811.94 55.1164 811.631 55.2734 811.168 55.5875C719.341 117.299 655.911 223.292 656.065 337.922C655.756 517.403 811.631 676 988.033 675.686C1164.43 676 1320.31 517.403 1320 337.922C1320.46 158.283 1164.59 -0.314076 988.033 -2.26537e-05ZM1274.47 177.597C1304.57 249.202 1284.04 336.665 1175.7 336.665H1175.55V338.079H1175.7C1280.95 338.079 1303.49 420.832 1277.1 491.18L1275.71 494.477L1276.32 494.163C1245.3 554.933 1196.38 601.884 1138.66 631.562C1069.67 658.099 988.959 635.174 988.804 528.395V528.238H987.415C987.415 635.331 906.391 658.413 837.25 631.719C808.853 616.958 781.537 597.801 756.381 573.462C733.848 550.693 715.483 524.47 701.13 496.362C671.807 424.915 692.642 338.393 800.365 338.393H800.52V336.98H800.365C695.111 336.98 672.578 254.226 698.969 183.878L700.204 180.895C714.557 152.159 733.385 125.464 756.381 102.067C782.154 77.2572 810.088 57.6288 839.102 42.8683C907.78 17.43 987.107 40.827 987.261 146.82V146.977H988.65C988.65 41.141 1067.67 17.587 1136.19 42.7113C1193.76 71.7612 1242.83 117.927 1274.47 177.911V177.597Z" fill="#231F20"/>
<path d="M331.968 670.819C320.701 670.819 306.349 670.348 289.989 668.306C194.304 653.703 106.643 598.743 55.5594 516.304C12.9638 442.345 27.008 339.806 145.072 339.649C205.261 339.178 266.531 339.178 316.843 339.021V336.666C266.222 336.509 203.718 336.351 142.603 335.88C39.5089 334.467 17.4394 253.598 43.6758 183.878L43.9845 183.25C68.0603 134.729 103.248 92.1748 148.313 62.0256C148.313 62.0256 148.467 62.0256 148.621 61.8686C153.251 58.7281 158.19 56.0586 162.974 53.2321C235.202 14.7606 331.042 31.5624 331.196 147.919V148.076H332.585C332.585 40.827 413.918 17.9011 483.059 44.7527L484.139 42.2403C484.139 42.2403 484.139 42.2403 484.293 42.2403V41.9262C482.287 40.67 480.126 39.8848 477.966 38.6286C393.392 -10.3637 283.816 -12.091 196.619 31.7195C60.8067 96.1004 -28.3971 257.21 8.17951 408.427C18.2111 452.394 37.5026 493.378 63.1216 529.494C62.813 529.337 62.813 529.494 64.3563 531.536C101.396 578.958 103.557 670.819 19.1371 670.819V672.389H331.968V670.819ZM190.291 638.785C185.198 636.273 180.259 633.603 175.167 630.777C180.105 633.603 185.198 636.273 190.291 638.785ZM171 628.578C164.363 624.81 157.727 620.413 151.245 615.859C157.727 620.256 164.363 624.496 171 628.578ZM143.992 610.834C140.288 608.165 136.738 605.495 133.034 602.512C136.584 605.338 140.288 608.165 143.992 610.834Z" fill="#231F20"/>
<path d="M989.885 235.697C989.885 217.953 989.73 201.151 989.576 186.234H987.415C987.415 201.465 987.107 218.424 987.107 236.482C982.322 306.045 954.851 332.583 884.167 336.194C868.271 336.194 853.147 336.351 839.72 336.508V338.707C853.764 338.707 869.351 338.864 885.865 339.021C955.469 342.947 982.477 369.484 987.107 438.419C987.107 456.634 987.261 473.593 987.415 488.981H989.576C989.576 473.75 989.885 456.791 989.885 438.576C994.36 369.013 1021.21 342.79 1090.97 339.021C1107.49 339.021 1123.23 338.864 1137.27 338.707V336.508C1124.31 336.508 1109.8 336.351 1094.68 336.194C1025.38 333.211 994.823 309.186 989.885 235.697Z" fill="#231F20"/>
<path d="M811.014 631.719C741.873 658.57 660.695 635.644 660.54 528.709V528.552H659.151C659.151 635.33 578.744 658.413 509.758 632.19C451.421 602.198 404.041 554.933 373.329 496.833C343.697 425.386 364.532 338.55 472.41 338.55H472.564V337.137H472.41C367.464 337.137 344.777 254.854 370.859 184.506C371.94 181.994 372.866 179.482 374.1 176.969C402.497 119.968 447.562 76.9431 500.498 48.5212C571.337 16.3307 659.306 36.5872 659.46 148.076V148.233H660.849C660.849 40.984 742.182 18.058 811.322 44.9096L812.557 41.9261C807.001 38.7856 801.6 36.2732 796.198 33.6037C699.741 -18.2151 575.503 -7.69435 485.682 53.8602C428.58 90.1334 384.904 143.051 358.204 203.036C357.433 204.763 356.661 206.647 355.889 208.375C353.111 214.813 350.642 221.408 348.173 228.16C348.018 228.631 347.864 229.259 347.555 229.73C316.998 317.351 321.473 416.592 372.248 501.073C402.034 554.776 446.019 598.429 497.103 628.735C498.338 629.521 499.572 630.149 500.652 630.777C502.967 632.033 505.282 633.446 507.597 634.702C521.179 642.24 534.451 648.207 547.261 653.075C548.032 653.389 548.958 653.703 549.73 654.017C551.736 654.802 553.588 655.43 555.595 656.058C627.976 681.967 708.229 682.596 780.765 649.463C791.105 645.223 801.445 640.512 812.249 634.388L811.014 631.405V631.719Z" fill="#231F20"/>
</g>
<defs>
<clipPath id="clip0_254_1461">
<rect width="1320" height="675.529" fill="white"/>
</clipPath>
</defs>
</svg>
