<svg width="47" height="39" viewBox="0 0 47 39" fill="none" xmlns="http://www.w3.org/2000/svg">
<g clip-path="url(#clip0_160_1838)">
<path d="M11.3987 10.1924C11.3987 4.6591 10.2995 1.96577 8.43075 1.96577C7.18334 1.96577 6.70541 2.50346 6.70541 5.49008V18.9079H7.5179C9.86455 18.9079 11.3939 16.6056 11.3939 10.1924M17.7648 36.5881V37.6195H12.1634C12.02 35.0239 12.02 35.5616 10.3425 28.4592C8.42597 20.3303 8.187 20.1837 6.801 20.1837H6.70541V34.6329C6.70541 36.0993 6.801 36.1482 9.00427 36.593V37.6244H0V36.593C2.20327 36.1531 2.29886 36.1042 2.29886 34.6329V3.87212C2.29886 2.40569 2.20327 2.35192 0 1.912V0.885498H8.43075C13.602 0.885498 16.0442 4.06764 16.0442 9.5032C16.0442 15.8724 13.1241 19.0545 9.29103 19.5922C11.8767 19.8366 12.4502 20.6676 14.5579 28.1122C16.9045 36.3388 16.6655 36.0455 17.7648 36.5832" fill="black"/>
<path d="M32.3944 23.3658V24.3972H23.9636V23.3658C26.6926 23.0725 26.836 23.1214 25.689 20.477L23.1989 14.797L21.0435 20.477C20.0398 23.1703 20.2788 23.0725 22.2909 23.3658V24.3972H16.4983V23.3658C18.2237 22.9259 18.0803 22.6815 19.1795 20.477L22.6732 13.5701L18.8402 4.80575C17.8843 2.60122 17.6931 2.40569 16.3979 1.91688V0.885498H24.8287V1.91688C21.8129 2.21017 21.9563 2.16129 23.1034 4.80575L25.7368 10.8279L27.7489 4.80575C28.6569 2.11241 28.5136 2.21017 26.5015 1.91688V0.885498H32.294V1.91688C30.5687 2.35681 30.6165 2.60122 29.6128 4.80575L26.2625 12.0548L29.9521 20.477C30.908 22.6815 31.0992 22.877 32.3944 23.3658Z" fill="black"/>
<path d="M33.833 19.2501C33.833 6.41882 36.9444 0.201172 42.3068 0.201172C44.3189 0.201172 45.9438 1.03215 47.0001 2.11241V11.8593H46.5221C43.602 3.13891 42.9807 1.28144 41.4465 1.28144C39.291 1.28144 38.5263 6.9614 38.5263 18.9128C38.5263 29.1484 40.2517 37.1307 42.216 37.1307C43.4108 37.1307 43.7023 36.1531 46.5269 26.6506H47.0049V36.2997C46.0012 37.3311 44.2281 38.2109 42.3116 38.2109C36.9491 38.2109 33.8378 32.4821 33.8378 19.2598" fill="black"/>
</g>
<defs>
<clipPath id="clip0_160_1838">
<rect width="47" height="38" fill="white" transform="translate(0 0.201172)"/>
</clipPath>
</defs>
</svg>

