<?xml version="1.0" encoding="UTF-8"?>
<svg id="Capa_2" data-name="Capa 2" xmlns="http://www.w3.org/2000/svg" viewBox="0 0 69.68 27.26">
  <defs>
    <style>
      .cls-1 {
        fill: #231f20;
      }
    </style>
  </defs>
  <path class="cls-1" d="M54.24,15.22h-4.76c-.11,0-.14,.05-.14,.14v1.84c0,.09,.04,.14,.14,.14h4.76c.09,0,.14-.05,.14-.14v-1.84c0-.09-.05-.14-.14-.14m-2.26-.31c.58,0,.95-.38,.95-.95V5.72c0-.09-.05-.14-.14-.14h-1.04c-.59,0-.95,.34-.95,.95V14.77c0,.09,.03,.14,.14,.14h1.04Zm2.26-11.75h-4.76c-.11,0-.14,.05-.14,.14v1.84c0,.09,.04,.14,.14,.14h4.76c.09,0,.14-.05,.14-.14v-1.84c0-.09-.05-.14-.14-.14m13.58,12.06h-2.28c-.11,0-.14-.05-.14-.14v-2.53c0-.63-.47-.95-.95-.95h-1.04c-.11,0-.14,.05-.14,.14v5.46c0,.09,.04,.14,.14,.14h4.42c.09,0,.14-.05,.14-.14v-1.84c0-.09-.05-.14-.14-.14m0-6.02h-2.28c-.11,0-.14-.05-.14-.14v-2.53c0-.57-.38-.95-.95-.95h-1.04c-.11,0-.14,.05-.14,.14v5.46c0,.09,.04,.14,.14,.14h4.42c.09,0,.14-.05,.14-.14v-1.84c0-.09-.05-.14-.14-.14m0-6.04h-4.42c-.11,0-.14,.05-.14,.14v1.84c0,.09,.04,.14,.14,.14h4.42c.09,0,.14-.05,.14-.14v-1.84c0-.09-.05-.14-.14-.14m-11.22,6.67h-1.04c-.11,0-.14,.05-.14,.14v7.23c0,.09,.04,.14,.14,.14h1.85c.09,0,.14-.05,.14-.14v-6.43c0-.62-.47-.95-.95-.95m5.08-6.67h-1.85c-.11,0-.14,.05-.14,.14v7.77c0,.09-.05,.14-.14,.14-.04,0-.11,0-.14-.14l-1.83-7.77c-.02-.09-.07-.14-.18-.14h-1.83c-.11,0-.14,.05-.14,.14v6.11c0,.09,.04,.12,.13,.12h2.19c.09,0,.14,.04,.16,.12l1.76,7.54c.02,.09,.07,.14,.18,.14h1.85c.09,0,.14-.05,.14-.14V3.3c0-.09-.05-.14-.14-.14m-15.82,2.42h-1.04c-.09,0-.14,.05-.14,.14v11.49c0,.09,.05,.14,.14,.14h1.85c.11,0,.14-.05,.14-.14V6.52c0-.59-.36-.95-.95-.95m2.68-2.42h-5.76c-.09,0-.14,.05-.14,.14v1.84c0,.09,.05,.14,.14,.14h5.76c.09,0,.14-.05,.14-.14v-1.84c0-.09-.05-.14-.14-.14m-11.94,6.67h-1.04c-.09,0-.14,.05-.14,.14v7.23c0,.09,.05,.14,.14,.14h1.85c.09,0,.14-.05,.14-.14v-6.43c0-.62-.43-.95-.95-.95m5.08-6.67h-1.85c-.09,0-.14,.05-.14,.14v7.77c0,.09-.05,.14-.14,.14s-.11-.04-.14-.14l-1.83-7.77c0-.09-.07-.14-.18-.14h-1.83c-.09,0-.14,.05-.14,.14v6.11c0,.09,.04,.12,.12,.12h2.19c.09,0,.14,.04,.16,.12l1.76,7.54c.02,.09,.09,.14,.18,.14h1.85c.09,0,.14-.05,.14-.14V3.3c0-.09-.05-.14-.14-.14m-7.69,12.06h-2.28c-.09,0-.14-.05-.14-.14v-2.53c0-.63-.43-.95-.95-.95h-1.04c-.09,0-.14,.05-.14,.14v5.46c0,.09,.05,.14,.14,.14h4.42c.11,0,.14-.05,.14-.14v-1.84c0-.09-.04-.14-.14-.14m0-6.02h-2.28c-.09,0-.14-.05-.14-.14v-2.53c0-.59-.36-.95-.95-.95h-1.04c-.09,0-.14,.05-.14,.14v5.46c0,.09,.05,.14,.14,.14h4.42c.11,0,.14-.05,.14-.14v-1.84c0-.09-.04-.14-.14-.14m0-6.04h-4.42c-.09,0-.14,.05-.14,.14v1.84c0,.09,.05,.14,.14,.14h4.42c.11,0,.14-.05,.14-.14v-1.84c0-.09-.04-.14-.14-.14m-7.83,0h-.99c-.09,0-.14,.05-.14,.14v1.84c0,.09,.05,.14,.14,.14h.84c.09,0,.14,.05,.14,.14v3.61c0,.09-.05,.14-.14,.14h-1.13c-.09,0-.14-.05-.14-.14V4.1c0-.62-.43-.95-.95-.95h-1.04c-.09,0-.14,.05-.14,.14v13.9c0,.09,.05,.14,.14,.14h1.85c.09,0,.14-.05,.14-.14v-5.75c0-.09,.05-.14,.14-.14h1.27c1.31,0,2.14-.82,2.14-2.13v-3.89c0-1.3-.83-2.13-2.14-2.13m-5.57,9.24c-.09-.59-.47-.8-.95-.8h-1.18c-.09,0-.14,.05-.13,.16l.95,5.48c.02,.07,.07,.11,.13,.11h1.89c.09,0,.14-.05,.13-.18l-.83-4.77Zm.59-3.22v-2.66c0-.59-.36-.95-.95-.95h-1.04c-.09,0-.14,.05-.14,.14v3.32c0,.09-.05,.14-.14,.14h-1.13c-.09,0-.14-.05-.14-.14v-3.61c0-.09,.05-.14,.14-.14h3.27c.09,0,.14-.05,.14-.14,0-1.2-.79-1.98-1.99-1.98h-3.56c-.09,0-.14,.05-.14,.14v13.9c0,.09,.05,.14,.14,.14h1.85c.09,0,.14-.05,.14-.14v-5.75c0-.09,.05-.14,.14-.14h1.27c1.19,0,2.14-.91,2.14-2.13m-7.11,6.04h-2.28c-.09,0-.14-.05-.14-.14v-2.53c0-.63-.43-.95-.95-.95h-1.04c-.09,0-.14,.05-.14,.14v5.46c0,.09,.05,.14,.14,.14h4.42c.09,0,.14-.05,.14-.14v-1.84c0-.09-.05-.14-.14-.14m0-6.02h-2.28c-.09,0-.14-.05-.14-.14v-2.53c0-.59-.36-.95-.95-.95h-1.04c-.09,0-.14,.05-.14,.14v5.46c0,.09,.05,.14,.14,.14h4.42c.09,0,.14-.05,.14-.14v-1.84c0-.09-.05-.14-.14-.14m0-6.04h-4.42c-.09,0-.14,.05-.14,.14v1.84c0,.09,.05,.14,.14,.14h4.42c.09,0,.14-.05,.14-.14v-1.84c0-.09-.05-.14-.14-.14m-7.99-.05h-.18c-.63,0-.95,.43-.95,.95v1.09c0,.09,.05,.14,.14,.14h.84c.09,0,.14,.05,.14,.14v2.07c0,.09,.05,.14,.14,.14h1.85c.09,0,.14-.05,.14-.14v-2.27c0-1.29-.84-2.13-2.14-2.13m-.43,12.11h-.84c-.09,0-.14-.05-.14-.14v-1.29c0-.59-.36-.95-.95-.95h-1.04c-.09,0-.14,.05-.14,.14v2.27c0,1.31,.83,2.14,2.14,2.14h.18c.59,0,.95-.36,.95-.95v-1.09c0-.09-.05-.14-.14-.14m2.05-3.91l-2.8-3.16c-.16-.18-.23-.39-.23-.62V3.25c0-.09-.05-.14-.14-.14-1.11,0-1.99,.97-1.99,2.11v2.57c0,.55,.18,1.02,.54,1.41l2.78,3.14c.16,.16,.23,.38,.23,.63v4.29c0,.09,.05,.14,.14,.14,1.13,0,1.99-1,1.99-2.13v-2.57c0-.55-.18-1.02-.52-1.39"/>
  <path class="cls-1" d="M3.55,23.08h.74s.04-.02,.04-.04l-.39-2.65s-.02-.01-.02,0l-.39,2.65s.01,.04,.03,.04m1.07,1.82l-.18-1.09s-.02-.03-.04-.03h-.97s-.04,.01-.04,.03l-.17,1.09s-.02,.04-.04,.04h-.63s-.04-.02-.04-.04l.86-5.51s.01-.04,.04-.04h1.03s.03,0,.03,.04l.86,5.51s-.01,.04-.03,.04h-.65s-.03-.01-.03-.04"/>
  <path class="cls-1" d="M6.62,21.84h.7c.14,0,.25-.11,.25-.25v-1.33c0-.14-.11-.25-.25-.25h-.69s-.04,.02-.04,.04v1.75s.01,.03,.03,.03m1.14,3.1s-.04-.01-.04-.03l-.75-2.39s-.01-.03-.04-.03h-.32s-.03,.01-.03,.04v2.37s-.01,.04-.04,.04h-.64s-.04-.01-.04-.04v-5.52s.02-.04,.04-.04h1.59c.44,0,.8,.36,.8,.8v1.55c0,.44-.36,.8-.8,.8h-.25c.29,.02,.51,.15,.64,.55l.57,1.84s-.01,.05-.04,.05h-.66Z"/>
  <path class="cls-1" d="M11.22,19.39v.58s-.01,.03-.04,.03h-.85s-.03,.02-.03,.04v4.86s-.02,.04-.04,.04h-.64s-.03-.01-.03-.04v-4.86s-.02-.04-.04-.04h-.83s-.04-.01-.04-.03v-.58s.02-.04,.04-.04h2.48s.04,.02,.04,.04"/>
  <path class="cls-1" d="M13.92,20.15v.7s-.02,.04-.04,.04h-.64s-.04-.02-.04-.04v-.59c0-.14-.11-.25-.25-.25h-.43c-.14,0-.25,.11-.25,.25v.57c0,.22,.13,.39,.31,.57l1.06,1.14c.2,.22,.29,.41,.29,.76v.83c0,.44-.36,.81-.82,.81h-.74c-.46,0-.82-.36-.82-.81v-.67s.01-.04,.04-.04h.64s.04,.01,.04,.04v.57c0,.14,.11,.25,.25,.25h.43c.14,0,.25-.11,.25-.25v-.59c0-.25-.16-.41-.3-.57l-1.06-1.14c-.2-.22-.3-.41-.3-.76v-.81c0-.44,.36-.81,.82-.81h.74c.46,0,.82,.36,.82,.81"/>
  <path class="cls-1" d="M18.27,19.39v.58s-.01,.03-.04,.03h-.85s-.03,.02-.03,.04v4.86s-.02,.04-.04,.04h-.64s-.03-.01-.03-.04v-4.86s-.02-.04-.04-.04h-.83s-.04-.01-.04-.03v-.58s.02-.04,.04-.04h2.48s.04,.02,.04,.04"/>
  <path class="cls-1" d="M19.52,20.04v1.73s.01,.04,.03,.04h1.16s.03,.01,.03,.03v.58s-.01,.04-.03,.04h-1.16s-.03,.01-.03,.03v1.74s.01,.03,.03,.03h1.16s.03,.02,.03,.04v.58s-.01,.03-.03,.03h-1.88s-.04-.01-.04-.04v-5.51s.01-.03,.04-.03h1.88s.03,.02,.03,.04v.58s-.01,.04-.03,.04h-1.16s-.03,.01-.03,.03"/>
  <path class="cls-1" d="M23.87,24.14c0,.44-.36,.8-.8,.8h-.8c-.44,0-.8-.37-.8-.8v-3.99c0-.44,.36-.8,.8-.8h.8c.44,0,.8,.36,.8,.8v.95s-.01,.04-.04,.04h-.64s-.04-.02-.04-.04v-.84c0-.14-.11-.25-.25-.25h-.47c-.13,0-.25,.11-.25,.25v3.77c0,.14,.11,.25,.25,.25h.47c.13,0,.25-.11,.25-.25v-.84s.02-.04,.04-.04h.64s.04,.02,.04,.04v.95Z"/>
  <path class="cls-1" d="M27.11,19.39v5.51s-.01,.04-.04,.04h-.65s-.04-.01-.04-.04v-2.39s-.01-.04-.04-.04h-.98s-.04,.02-.04,.04v2.39s-.01,.04-.04,.04h-.64s-.04-.01-.04-.04v-5.51s.02-.04,.04-.04h.64s.04,.02,.04,.04v2.38s.02,.04,.04,.04h.98s.04-.01,.04-.04v-2.38s.01-.04,.04-.04h.65s.04,.02,.04,.04"/>
  <path class="cls-1" d="M29.88,19.35h.64s.03,.01,.03,.04v5.51s-.01,.04-.03,.04h-.75s-.03-.01-.03-.03l-1.1-3.49s-.03,0-.03,0v3.47s-.01,.04-.03,.04h-.64s-.04-.02-.04-.04v-5.51s.02-.04,.04-.04h.75s.03,0,.03,.03l1.1,3.48s.02,.01,.02,0v-3.47s.02-.04,.04-.04"/>
  <path class="cls-1" d="M33.1,20.25c0-.13-.11-.25-.25-.25h-.58c-.14,0-.26,.11-.26,.25v3.78c0,.14,.11,.25,.26,.25h.58c.14,0,.25-.11,.25-.25v-3.78Zm.72-.11v3.99c0,.44-.36,.81-.8,.81h-.92c-.44,0-.8-.36-.8-.81v-3.99c0-.44,.36-.8,.8-.8h.92c.44,0,.8,.36,.8,.8"/>
  <path class="cls-1" d="M36.53,24.31v.58s-.01,.04-.04,.04h-1.9s-.04-.02-.04-.04v-5.52s.01-.03,.04-.03h.64s.04,.01,.04,.03v4.86s.01,.04,.03,.04h1.18s.04,.01,.04,.03"/>
  <path class="cls-1" d="M38.89,20.25c0-.13-.11-.25-.25-.25h-.58c-.14,0-.26,.11-.26,.25v3.78c0,.14,.11,.25,.26,.25h.58c.14,0,.25-.11,.25-.25v-3.78Zm.72-.11v3.99c0,.44-.36,.81-.8,.81h-.92c-.44,0-.8-.36-.8-.81v-3.99c0-.44,.36-.8,.8-.8h.92c.44,0,.8,.36,.8,.8"/>
  <path class="cls-1" d="M42.06,24.9v-2.52s.01-.04,.03-.04h.64s.03,.02,.03,.04v2.52s-.01,.04-.03,.04h-.64s-.03-.02-.03-.04m0-3.8v-.84c0-.14-.11-.25-.25-.25h-.53c-.14,0-.25,.11-.25,.25v3.77c0,.14,.11,.25,.25,.25h.78c0,.38-.38,.66-.8,.66h-.18c-.44,0-.77-.4-.77-.81v-3.98c0-.44,.35-.8,.8-.8h.85c.44,0,.8,.36,.8,.8v.95s-.01,.04-.03,.04h-.63s-.04-.02-.04-.04"/>
  <path class="cls-1" d="M44.72,20.01s-.04,.01-.04,.04v4.2s.01,.04,.04,.04h.58s.04,.01,.04,.03v.59s-.01,.04-.04,.04h-1.96s-.04-.01-.04-.04v-.59s.01-.03,.04-.03h.58s.03-.02,.03-.04v-4.2s-.01-.04-.03-.04h-.58s-.04-.01-.04-.03v-.59s.01-.03,.04-.03h1.96s.04,.01,.04,.03v.58s-.01,.04-.04,.04h-.58Z"/>
  <path class="cls-1" d="M46.65,20.04v1.73s.01,.04,.03,.04h1.16s.03,.01,.03,.03v.58s-.01,.04-.03,.04h-1.16s-.03,.01-.03,.03v1.74s.01,.03,.03,.03h1.16s.03,.02,.03,.04v.58s-.01,.03-.03,.03h-1.88s-.03-.01-.03-.04v-5.51s.01-.03,.03-.03h1.88s.03,.02,.03,.04v.58s-.01,.04-.03,.04h-1.16s-.03,.01-.03,.03"/>
  <path class="cls-1" d="M50.86,20.15v.7s-.02,.04-.04,.04h-.64s-.03-.02-.03-.04v-.59c0-.14-.11-.25-.25-.25h-.43c-.14,0-.25,.11-.25,.25v.57c0,.22,.13,.39,.31,.57l1.06,1.14c.2,.22,.29,.41,.29,.76v.83c0,.44-.36,.81-.82,.81h-.74c-.46,0-.82-.36-.82-.81v-.67s.01-.04,.03-.04h.64s.04,.01,.04,.04v.57c0,.14,.11,.25,.25,.25h.43c.14,0,.25-.11,.25-.25v-.59c0-.25-.15-.41-.3-.57l-1.06-1.14c-.2-.22-.3-.41-.3-.76v-.81c0-.44,.36-.81,.82-.81h.74c.46,0,.82,.36,.82,.81"/>
</svg>